<?xml version="1.0" encoding="utf-8"?>
<!-- (C) Claudio Z. 2023 (www.cloudofoz.com)  -->
<svg version="1.1" xmlns="http://www.w3.org/2000/svg" xmlns:xlink="http://www.w3.org/1999/xlink" x="0px" y="0px"
	 viewBox="0 0 1272 256" style="enable-background:new 0 0 1272 256;" xml:space="preserve">
<style type="text/css">
	.st0{fill:#669933;}
	.st1{opacity:0.9;fill:#669933;}
	.st2{opacity:0.8;fill:#669933;}
	.st3{opacity:0.7;fill:#669933;}
	.st4{opacity:0.6;fill:#669933;}
	.st5{opacity:0.5;fill:#669933;}
	.st6{opacity:0.4;fill:#669933;}
	.st7{opacity:0.3;fill:#669933;}
	.st8{opacity:0.2;fill:#669933;}
	.st9{opacity:0.35;}
	.st10{fill:#151414;}
	.st11{fill:none;stroke:#FFFFFF;stroke-width:3;stroke-linecap:round;stroke-linejoin:round;}
	.st12{opacity:0.8;}
	.st13{fill:none;stroke:#151414;stroke-width:6;stroke-linecap:round;stroke-linejoin:round;stroke-miterlimit:10;}
</style>
<g id="rect_x5F_start_x5F_layer">
	<rect x="17.1" y="26" class="st0" width="101.1" height="101.1"/>
	<rect x="17.1" y="131.9" class="st0" width="101.1" height="101.1"/>
	<rect x="123.5" y="28.8" class="st1" width="46.1" height="46.1"/>
	<rect x="123.5" y="80.6" class="st1" width="46.1" height="46.1"/>
	<rect x="123.5" y="133.2" class="st1" width="46.1" height="46.1"/>
	<rect x="123.5" y="185" class="st1" width="46.1" height="46.1"/>
	<rect x="175.3" y="146.3" class="st2" width="23.3" height="23.3"/>
	<rect x="175.2" y="197.2" class="st2" width="23.3" height="23.3"/>
	<rect x="175.4" y="39.3" class="st2" width="23.3" height="23.3"/>
	<rect x="175.3" y="91.9" class="st2" width="23.3" height="23.3"/>
	<rect x="204.5" y="173.1" class="st3" width="23.3" height="23.3"/>
	<rect x="204.6" y="66.1" class="st3" width="23.3" height="23.3"/>
	<rect x="204.5" y="118.7" class="st3" width="23.3" height="23.3"/>
	<rect x="235.9" y="149.3" class="st4" width="17" height="17"/>
	<rect x="235.8" y="200.3" class="st4" width="17" height="17"/>
	<rect x="236" y="45.4" class="st4" width="17" height="17"/>
	<rect x="235.9" y="95.1" class="st4" width="17" height="17"/>
	<rect x="270.7" y="175.6" class="st5" width="17" height="17"/>
	<rect x="270.8" y="71.7" class="st5" width="17" height="17"/>
	<rect x="270.7" y="121.3" class="st5" width="17" height="17"/>
	<rect x="303.8" y="150.3" class="st6" width="12.7" height="12.7"/>
	<rect x="303.7" y="202" class="st6" width="12.7" height="12.7"/>
	<rect x="303.9" y="47.7" class="st6" width="12.7" height="12.7"/>
	<rect x="303.8" y="96" class="st6" width="12.7" height="12.7"/>
	<rect x="341" y="178.6" class="st7" width="12.7" height="12.7"/>
	<rect x="341" y="71.9" class="st7" width="12.7" height="12.7"/>
	<rect x="341" y="126" class="st7" width="12.7" height="12.7"/>
	<rect x="375.7" y="97.9" class="st8" width="9.6" height="9.6"/>
	<rect x="375.7" y="151.5" class="st8" width="9.6" height="9.6"/>
</g>
<g id="shadow_x5F_layer">
	<g class="st9">
		<g>
			<path class="st10" d="M425.3,165.9c0,2.4-0.5,6.8-1.4,13.2c-1,7-1.9,11.1-2.7,12.4c-0.7,1.1-1.6,1.6-2.8,1.6
				c-0.5,0-1.3-0.1-2.5-0.3c-4.1-0.6-15.9-0.8-35.6-0.8c-4.3,0-10.7,0-19.1-0.1c-8.5-0.1-14.8-0.1-19-0.1c-1.8,0-2.8-0.8-2.8-2.4
				c0-6.2,0.3-15.6,1-28.1c0.7-12.5,1-21.9,1-28.1c0-6.3-0.3-18.2-1-35.5c-0.2-4.5-0.5-11.1-0.9-20l-0.1-1.2
				c-0.1-1.3,0.6-1.9,2.1-1.9c4.1,0,10.3,0.1,18.6,0.3c8.3,0.2,14.5,0.3,18.6,0.3c4.1,0,10.2-0.1,18.4-0.3
				c8.2-0.2,14.3-0.3,18.4-0.3c2.9,0,4.6,1.1,5,3.3c0.3,1.3,0.7,5.2,1.3,11.6c0.6,6.5,0.9,10.4,0.9,11.8c0,1.2-0.6,1.8-1.7,1.8
				c-0.3,0-0.9,0-1.8-0.1c-14.8-1.2-28.1-1.8-39.9-1.8c-3,0-4.8,0.7-5.4,2.1c-0.3,0.7-0.4,2.8-0.4,6.4c0,3.8,0.6,6.3,1.7,7.5
				c0.9,1.1,2.8,1.6,5.4,1.6c0.6,0,1.6,0,3.3-0.1c1.6-0.1,2.9-0.1,4-0.1c7,0,14.1-0.2,21.3-0.6c0.6-0.1,2.1-0.2,4.6-0.4
				c1.9-0.2,3.4-0.3,4.5-0.3c1.3,0,2,0.6,2,1.9c0-1.2-0.5,3.1-1.5,12.8c-0.4,4.5-0.7,8.9-0.7,13.4c0,1.1-0.8,1.7-2.4,1.7l-7.5-0.8
				c-3.2-0.3-10.4-0.5-21.7-0.5h-8.9c-2.3,0-3.6,0.6-4,1.7c-0.1,0.3-0.1,2-0.1,5.2c0,4.2,0.3,7,0.8,8.2c0.9,2.1,4.5,3.4,10.7,3.8
				c-0.1,0,4,0,12.2,0c2.9,0,7.3-0.3,13.2-0.8c5.8-0.5,10.2-0.8,13.1-0.8C424.7,162.9,425.3,163.9,425.3,165.9z"/>
			<path class="st10" d="M528.6,180.8c0,5.5-0.3,8.7-0.8,9.7c-0.6,1.2-2.5,1.8-5.7,1.8c-0.5,0-1.6,0-3.3,0c-1.7-0.1-3.1-0.1-4.2-0.1
				c-1.1,0-2.8-0.1-5.1-0.2c-2.3-0.1-3.9-0.2-5.1-0.2c-0.9,0-4.9-5.3-12-16c-7.1-10.7-10.8-16.1-11.1-16.1c-1.2,0.9-5.2,6.6-12,16.9
				c-6.6,9.9-10.4,14.9-11.5,15.3c-0.8,0.2-2.9,0.3-6.3,0.3c-11.4,0-17.1-0.6-17.1-1.8s-0.1-2.8-0.2-5c-0.1-2.2-0.2-3.8-0.2-4.8
				c0-6.9,0.4-11,1.3-12.2c0.1-0.1,4.6-6.2,13.8-18.3c7.4-9.8,11.1-15.4,11.1-16.8c0-1.4-3.7-6.9-11.1-16.5c-4.7-6-9.3-11.9-13.9-18
				c-0.5-0.7-0.8-1.9-0.9-3.6c-0.1-1.2-0.1-2.8,0-4.8c0.2-2.4,0.3-3.7,0.3-4c0-1.1-0.1-2.8-0.3-5.2c-0.2-2.3-0.3-4.1-0.3-5.2
				c0-1.1,1-1.6,2.9-1.6c1.3,0,3.2,0.1,5.7,0.3c2.5,0.2,4.4,0.3,5.6,0.3c1.1,0,2.8-0.1,4.9-0.2c2.2-0.1,3.8-0.2,4.8-0.2
				c0.9,0,4.9,5.4,12.1,16.2c7.2,10.8,11,16.2,11.3,16.2c1.1-0.7,5.2-6.3,12.3-17c6.7-10.3,10.6-15.4,11.6-15.4H525
				c1.9,0,2.9,0.5,2.9,1.4v20.3c0,1.4-4.3,7.8-12.9,19c-8.6,11.2-12.9,17.1-12.9,17.8c0,0.9,3.8,6.4,11.4,16.4
				c8.9,11.7,13.6,17.9,13.9,18.5C528.2,169.3,528.6,173.5,528.6,180.8z"/>
			<path class="st10" d="M575.7,130.2c0,6.6,0.2,16.4,0.5,29.6c0.3,13.2,0.5,23.1,0.5,29.6c0,1.1-0.3,1.8-0.8,2.1
				c-0.1,0.1-0.8,0.2-2.2,0.3c-3.6,0.4-8.5,0.7-14.5,0.7c-8.1,0-13.3-0.2-15.5-0.7c-1.6-0.3-2.4-1.2-2.4-2.6c0,0.9,0.3-4,0.8-14.7
				c1-22.5,1.5-37.3,1.5-44.4c0-6-0.2-14.9-0.6-26.8c-0.4-11.9-0.6-20.8-0.6-26.8c0-1.2,0.6-1.8,1.9-1.8c1.7,0,4.3,0.1,7.8,0.3
				c3.5,0.2,6.1,0.3,7.8,0.3c1.7,0,4.3-0.1,7.6-0.3c3.4-0.2,5.9-0.3,7.6-0.3c1.6,0,2.4,0.6,2.4,1.8c0,6-0.3,14.9-1,26.8
				C576,115.3,575.7,124.2,575.7,130.2z"/>
			<path class="st10" d="M679,102c0,0.6-0.6,0.9-1.7,0.9c-4.2,0-10.5-0.4-19-1.1c-8.5-0.7-14.8-1.1-19.1-1.1c-5.3,0-8.5,0.2-9.4,0.6
				c-2.1,0.9-3.1,3.6-3.1,8c0,5.3,1.3,8.3,4,9c1.1,0.3,2.8,0.4,5.1,0.4c3.8,0,9.6-0.2,17.2-0.6c7.7-0.4,13.4-0.6,17.2-0.6
				c1.8,0,2.8,4.9,2.8,14.7c0,8.5-0.3,13.5-0.9,14.9c-0.4,1-1.1,1.5-2.3,1.5c0.7,0-1-0.2-5.3-0.6c-6-0.6-15-0.8-27.1-0.8
				c-3.9,0-6.1,0-6.6,0.1c-2.8,0.4-4.3,1.6-4.3,3.6c0,7.9,0.3,17,1,27.3c0.6,9.3,0.8,13.4,0.8,12.4c0,1.4-1.8,2.3-5.3,2.5
				c0.9-0.1-1.5-0.1-7.4-0.1c-10.4,0-17.1-0.4-20.1-1.1c-1.6-0.4-2.4-1.3-2.4-2.6c0-6.2,0.2-15.5,0.6-27.8
				c0.4-12.4,0.6-21.7,0.6-27.8c0-7.3-0.3-16.6-1-27.7c-1-17.2-1.5-26.4-1.6-27.7l-0.1-1c-0.1-1.4,0.8-2.1,2.5-2.1
				c4.1,0,10.3,0.1,18.7,0.3c8.3,0.2,14.6,0.3,18.7,0.3c4.5,0,11.1-0.3,20.1-1c8.9-0.7,15.6-1,20.1-1c2.8,0,4.3,1.1,4.7,3.4
				c0,2.4,0.1,6,0.3,10.8c0.1,1.2,0.5,3.6,1.1,7.1C678.7,97.9,679,100.3,679,102z"/>
			<path class="st10" d="M831.6,119.4c0,13.5-3.5,24.4-10.6,32.7c-7.6,8.9-18,13.3-31.3,13.3c-2.2,0-5.6-0.1-10.1-0.4
				c-4.5-0.3-7.8-0.4-10.1-0.4c-2.4,0-3.6,1-3.6,3.1c0,2.6,0.3,6.4,0.8,11.4c0.5,5.1,0.8,8.9,0.8,11.4c0,1.3-0.6,1.9-1.8,1.9
				c-3.4,0-8.5-0.1-15.3-0.3c-6.8-0.2-11.9-0.3-15.3-0.3c-1.6,0-2.4-0.8-2.4-2.4c0-6.2,0.1-15.5,0.3-27.8
				c0.2-12.4,0.3-21.7,0.3-27.8c0-17.5-0.8-35.8-2.3-55.1l-0.1-1.2c-0.1-1.1,0.7-1.7,2.5-1.9c4.3-0.6,13.9-0.8,28.7-0.8
				c8.7,0,17.1,0.1,25.1,0.3c13.2,0.4,23.8,4.5,31.9,12.4C827.5,95.6,831.6,106.3,831.6,119.4z M798.3,120.7c0-13-6.3-19.5-19-19.5
				c-8.9,0-13.6,0.5-14,1.5c-0.4,0.7-0.6,7.2-0.6,19.3c0,1.7,0.1,4.3,0.2,7.6c0.1,3.4,0.2,5.9,0.2,7.6c0,1.1,5,1.7,15,1.7
				C792.2,139,798.3,132.9,798.3,120.7z"/>
			<path class="st10" d="M897.8,139.9c0,2.2-1.2,3.3-3.6,3.3c-1.1,0-2.6-0.1-4.6-0.2c-2-0.1-3.5-0.2-4.5-0.2c-4.6,0-7.8,0.7-9.4,2.2
				c-1.7,1.4-2.5,4.4-2.5,8.8c0,2.4,0,6,0.1,10.9c0.1,4.9,0.1,8.5,0.1,10.9c0,1.6,0.1,4,0.3,7.2c0.2,3.2,0.3,5.6,0.3,7.1
				c0,1.3-0.9,2.1-2.8,2.3c-2.7,0.2-6.8,0.3-12.3,0.3c-5.3,0-9.5-0.2-12.7-0.5c-1.8-0.2-2.8-1.1-2.8-2.8c0-4.5,0-11.1,0.1-20
				c0.1-8.9,0.1-15.5,0.1-20c0-13.1-1.2-23.9-3.6-32.3c-0.1-0.5-0.2-0.9-0.2-1.3c0-0.8,0.4-1.4,1.3-1.7c3.1-0.3,7.5-0.9,13.4-1.8
				c8.8-1.7,13.3-2.6,13.6-2.6c1,0,1.6,1.8,1.9,5.3s0.8,5.3,1.5,5.3c-0.8,0,1.5-1.5,6.8-4.4c5.3-2.9,10.5-4.4,15.4-4.4
				c3.1,0,4.7,0.7,4.7,2c0,1.6-0.2,3.9-0.5,6.8c-0.3,3.2-0.5,5.5-0.6,6.8c0,1.6,0,3.8,0.1,6.4C897.7,136.6,897.8,138.8,897.8,139.9z
				"/>
			<path class="st10" d="M938.5,153.6c0,4.1,0.1,10.1,0.3,18.2c0.2,8,0.3,14.1,0.3,18.1c0,1.2-0.7,1.9-2.1,2.1
				c-1.9,0.3-6.2,0.5-12.8,0.5c-6.7,0-11-0.2-12.9-0.5c-1.2-0.2-2-0.6-2.3-1.1c-0.1-0.2-0.2-1.1-0.2-2.5c0-3.8,0.1-9.6,0.3-17.3
				c0.2-7.7,0.3-13.5,0.3-17.4c0-15.8-0.6-28.4-1.8-37.7c-0.1-0.9-0.2-1.5-0.2-1.8c0-1.1,0.8-1.7,2.3-1.7c1.6,0,3.9,0.2,7.1,0.5
				c3.2,0.3,5.6,0.5,7.2,0.5c1.6,0,4-0.1,7.3-0.4c3.2-0.3,5.6-0.4,7.3-0.4c1.3,0,2,0.6,2,1.7c0,0.2-0.1,0.8-0.2,1.6
				C939.1,126.7,938.5,139.3,938.5,153.6z M940.6,91.5c0,9.7-5.5,14.5-16.4,14.5c-4.7,0-8.5-1.2-11.6-3.7c-3.3-2.7-5-6.3-5-10.9
				c0-4.3,1.7-7.9,5.2-10.7c3.2-2.6,7-3.8,11.4-3.8c4.3,0,8.1,1.3,11.3,3.9C938.9,83.7,940.6,87.2,940.6,91.5z"/>
			<path class="st10" d="M1037.6,189.5c0,1.5-0.8,2.4-2.3,2.6c-1.6,0.2-5.6,0.3-12.2,0.3c-7,0-11.4-0.2-13-0.5
				c-1.7-0.3-2.5-1.5-2.5-3.4c0-2.6,0.1-6.6,0.3-11.9c0.2-5.3,0.3-9.3,0.3-11.9c0-2.1-0.1-5.1-0.2-9.2c-0.1-4.1-0.2-7.2-0.2-9.2
				c0-7.6-3.3-11.4-9.9-11.4c-2.2,0-4.7,0.9-7.6,2.8c-3.1,2.1-4.7,4.2-4.7,6.3V189c0,1.8-0.9,2.9-2.6,3.1c-1.9,0.2-5.9,0.3-11.9,0.3
				c-6.5,0-10.7-0.2-12.7-0.5c-1.7-0.3-2.6-1.2-2.6-2.8c0-4.3,0-10.9,0.1-19.6c0.1-8.7,0.1-15.3,0.1-19.7c0-13.9-1.1-24.7-3.3-32.6
				c-0.1-0.5-0.2-0.9-0.2-1.3c0-0.9,0.4-1.5,1.3-1.8c3.5-0.4,8.2-1,14-1.8c8.9-1.7,13.8-2.6,14.9-2.6c0.6,0,1.1,1.9,1.4,5.6
				c0.3,3.8,0.8,5.6,1.4,5.6c-0.6,0,2.4-1.9,9-5.8c6.6-3.9,12.4-5.8,17.3-5.8c7.1,0,13,1.7,17.7,5c5.3,3.8,7.9,9.2,7.9,16V157
				c0,3.6,0,9,0.1,16.2C1037.5,180.4,1037.6,185.8,1037.6,189.5z"/>
			<path class="st10" d="M1107.4,167.4c0,1.7-0.2,4.2-0.6,7.6c-0.4,3.4-0.6,5.9-0.6,7.5s-0.2,2.6-0.5,3c-0.3,0.4-1.3,1.1-2.8,1.9
				c-7.2,4-15.1,5.9-23.9,5.9c-16.1,0-24.1-6.2-24.1-18.5c0-3.7,0.1-9.2,0.4-16.6c0.3-7.4,0.4-12.9,0.4-16.6c0-2.4-1.4-3.7-4.3-3.7
				c-0.2,0-0.6,0-1.1,0c-0.5,0.1-0.9,0.1-1.1,0.1c-2.1,0-3.2-0.8-3.2-2.3c0-0.9,0.1-2.3,0.2-4.1c0.1-1.8,0.2-3.2,0.2-4.1
				c0-1.2-0.1-2.9-0.2-5.3c-0.1-2.4-0.2-4.2-0.2-5.3c0-1.1,1.8-1.7,5.3-1.8c2-0.1,3.1-0.6,3.3-1.7c0.3-2.1,0.4-5.5,0.3-10
				c-0.2-7.2-0.3-10.6-0.3-10.3c0-6.5,0.6-9.7,1.8-9.7c1.5,0,3.6,0.3,6.4,1c3.2,0.7,5.4,1.1,6.6,1.3c2.8,0.4,7.1,0.9,12.9,1.6
				c1.4,0.1,2.1,0.6,2.1,1.4c0,2.2-0.2,5.6-0.5,10.1c-0.4,4.5-0.5,7.9-0.5,10.2c0,2.7,0.8,4.1,2.4,4.1c1.9,0,4.9-0.1,8.9-0.3
				c4-0.2,6.9-0.3,8.9-0.3c1.2,0,1.8,0.4,1.8,1.3c0,1.3-0.1,3.2-0.4,5.8c-0.3,2.6-0.4,4.5-0.4,5.8c0,1.3,0,3.3,0.1,5.8
				c0.1,2.6,0.1,4.5,0.1,5.8c0,1.2-0.8,1.8-2.4,1.8c-1.1,0-3,0-5.6-0.1c-2.6-0.1-4.5-0.1-5.6-0.1h-6.3c-0.8,0-1.3,1.2-1.3,3.7
				c0,1.3,0,3.3,0,5.9c0.1,2.7,0.1,4.6,0.1,5.9c0,4.7,0.5,7.9,1.6,9.7c1.5,2.4,4.5,3.6,8.9,3.6c1.4,0,3.4-0.3,6-1
				c2.6-0.6,4.4-1,5.5-1C1106.8,165.6,1107.4,166.2,1107.4,167.4z"/>
			<path class="st10" d="M1192.6,146.5c0,5.6-1.8,8.8-5.4,9.6c-0.6,0.1-6.4,0.7-17.3,1.8c-6.6,0.7-16.4,1.6-29.4,2.6
				c0.8,3.6,3.1,6.4,7.1,8.3c3.2,1.6,6.9,2.3,11,2.3c5,0,9.9-1.3,14.9-4c2.1-1.3,4.2-2.7,6.3-4c1.2,0.6,3.1,3.4,5.9,8.5
				c2.8,5.1,4.1,8.4,4.1,9.8c0,0.4-0.4,1-1.3,1.9c-6.8,7.3-17.3,10.9-31.6,10.9c-13.2,0-23.9-3.9-32.1-11.6
				c-8.3-7.8-12.5-18.3-12.5-31.5c0-12.8,3.7-23.3,11.2-31.5c7.7-8.5,17.9-12.7,30.6-12.7c10.7,0,19.8,3.9,27.2,11.7
				C1188.9,126.5,1192.6,135.8,1192.6,146.5z M1163.4,141.5c0-3.5-1.2-6.5-3.7-9.1c-2.5-2.6-5.4-3.9-8.8-3.9c-3.5,0-6.4,1.5-8.7,4.4
				c-2.1,2.7-3.2,5.9-3.2,9.6c0,1.5,0.8,2.3,2.3,2.3c4.1,0,10.5-0.6,19.2-1.9C1162.5,142.5,1163.4,142.1,1163.4,141.5z"/>
			<path class="st10" d="M1257.2,139.9c0,2.2-1.2,3.3-3.6,3.3c-1.1,0-2.6-0.1-4.6-0.2c-2-0.1-3.5-0.2-4.5-0.2
				c-4.6,0-7.8,0.7-9.4,2.2c-1.7,1.4-2.5,4.4-2.5,8.8c0,2.4,0,6,0.1,10.9c0.1,4.9,0.1,8.5,0.1,10.9c0,1.6,0.1,4,0.3,7.2
				c0.2,3.2,0.3,5.6,0.3,7.1c0,1.3-0.9,2.1-2.8,2.3c-2.7,0.2-6.8,0.3-12.3,0.3c-5.3,0-9.5-0.2-12.7-0.5c-1.8-0.2-2.8-1.1-2.8-2.8
				c0-4.5,0-11.1,0.1-20c0.1-8.9,0.1-15.5,0.1-20c0-13.1-1.2-23.9-3.6-32.3c-0.1-0.5-0.2-0.9-0.2-1.3c0-0.8,0.4-1.4,1.3-1.7
				c3.1-0.3,7.5-0.9,13.4-1.8c8.8-1.7,13.3-2.6,13.6-2.6c1,0,1.6,1.8,1.9,5.3s0.8,5.3,1.5,5.3c-0.8,0,1.5-1.5,6.8-4.4
				c5.3-2.9,10.5-4.4,15.4-4.4c3.1,0,4.7,0.7,4.7,2c0,1.6-0.2,3.9-0.5,6.8c-0.3,3.2-0.5,5.5-0.6,6.8c0,1.6,0,3.8,0.1,6.4
				C1257.1,136.6,1257.2,138.8,1257.2,139.9z"/>
		</g>
	</g>
</g>
<g id="fill_x5F_layer">
	<g>
		<g>
			<g>
				<path class="st11" d="M370.5,137.2c4.1,7.1,34.7-29.5,38.8-22.4c3,5.3-32.2,17.3-29.1,22.6c3.1,5.3,23.5-20.6,26.5-15.3
					c1.9,3.2-18.6,12.2-16.7,15.4c2.1,3.6,13.5-12.6,15.5-9c0.8,1.4-5.9,7.3-5.1,8.7c1.1,1.9,5.3-5.7,6.5-3.7c0.4,0.8,0.6,4.4,1,5.2
					c0.3,0.5,4-3,4.3-2.5"/>
				<path class="st11" d="M375.7,90.3c4,6.9,34.2-29,38.2-22.1c3.1,5.4-32.8,17.5-29.7,22.9c3.2,5.5,22.1-20,25.3-14.6
					c1.6,2.7-15,10.8-13.4,13.5c2.3,4,16.5-14.8,18.8-10.9c1.6,2.7-15.1,10.9-13.6,13.6c1.5,2.6,7.2-7.6,8.7-5
					c0.6,1-2.2,5.7-1.6,6.7c0.7,1.2,7.5-5.9,8.1-4.7"/>
				<path class="st11" d="M332.6,68c0.3,0.4,3.5-2.6,3.7-2.2c0.4,0.7,2.7,3.3,3.1,4c1.2,2,1-3.3,2.2-1.3c0.9,1.5-6.6,7.5-5.7,9.1
					c2,3.5,14.8-13.3,16.9-9.7c1.9,3.3-18.6,12.2-16.7,15.4c2.9,5.1,19.6-18.1,22.5-13c1.9,3.3-19,12.3-17.1,15.6
					c3.9,6.7,21.4-21.2,25.2-14.6c3.1,5.3-32.7,17.5-29.6,22.9c4.8,8.4,40.4-34.5,45.2-26.1c4.8,8.3-52.6,25.1-47.8,33.4
					c5.8,10,47.6-40.9,53.4-30.8c4.6,8-50.2,24.1-45.6,32.1c6.8,11.7,57.2-48.6,63.9-36.9c6.5,11.2-71.8,32.3-65.4,43.5
					c7.5,12.9,64.9-54.7,72.3-41.8c7.2,12.4-79.6,35.2-72.5,47.6c3,5.3,15.4-16,18.5-10.7c2.4,4.1-24.6,14.5-22.2,18.6
					c3.1,5.3,19.5-18.4,22.6-13c2.6,4.6-27.5,15.6-24.8,20.1c3.4,5.8,25.7-22.6,29-16.8c2.4,4.2-25.3,14.7-22.8,19
					c4.3,7.4,26.9-25.4,31.1-18c3.2,5.6-34.2,18.1-30.9,23.6c5.3,9.1,43.9-37.5,49.2-28.4c5.1,8.9-56.2,26.4-51.1,35.3
					c6.3,10.9,47.3-41.9,53.7-31c5.7,9.8-62.7,28.8-57,38.7c7.4,12.9,67.3-56,74.7-43.1c7.1,12.3-79.2,35.1-72.1,47.4
					c3.2,5.5,24.8-21.7,28-16.2c3.4,5.9-36.5,19-33.1,24.9c3.2,5.6,25.2-22,28.4-16.4c2.7,4.7-28.4,15.9-25.7,20.6
					c3.3,5.7,27.6-23.5,30.9-17.8c3.2,5.6-34.3,18.1-31.1,23.7c3.7,6.4,28-24.8,31.7-18.3c3,5.3-32.2,17.4-29.2,22.6
					c4.4,7.7,33.8-29.7,38.2-22c3.4,5.9-36.5,19-33.1,24.9c4.5,7.8,34.8-30.5,39.3-22.7c3.1,5.4-32.9,17.6-29.8,23
					c4.6,8,43.4-35.7,48-27.7c3.9,6.8-42.4,21.2-38.5,28c4.8,8.3,42.9-35.8,47.7-27.5c3.3,5.8-35.4,18.5-32.1,24.3
					c4.4,7.6,29.8-27.3,34.2-19.7c2.8,4.9-29.6,16.3-26.7,21.2c3.4,5.9,26.5-23.1,29.9-17.3c2.2,3.8-22.5,13.7-20.3,17.5
					c2.4,4.1,14.5-13.9,16.9-9.8c0.6,1-2.4,5.8-1.8,6.8c1.4,2.4,3.2-5,4.6-2.7c0.8,1.3-5.1,7-4.4,8.3c0.4,0.7,4.8-3.7,5.2-3"/>
				<path class="st11" d="M475.3,151.7c2.6,4.6,20.8-18.1,23.5-13.6c2.3,3.9-23.3,14-21,17.9c2.6,4.6,19.5-17.3,22.1-12.8
					c2.1,3.7-21.5,13.3-19.3,16.9c2.7,4.6,19.2-17.2,21.8-12.6c2,3.5-20.1,12.7-18.1,16.2c2.7,4.7,20.2-17.9,22.9-13.2
					c1.8,3.1-17.3,11.7-15.5,14.7c2.7,4.7,19.5-17.5,22.2-12.8c2.3,4-23.5,14-21.2,18c2.7,4.7,22.3-19.2,25-14.4
					c2.7,4.6-28,15.7-25.3,20.4c2.7,4.7,22-19,24.7-14.3c2.4,4.1-24.3,14.3-21.9,18.4c2.5,4.4,23.7-19.5,26.2-15.1
					c1.8,3.1-17.9,11.9-16.1,15.1c2,3.5,7.8-9.2,9.9-5.7c0.5,0.9-1.4,5.4-0.9,6.3c1.1,2,4.3-5.1,5.5-3.2"/>
				<path class="st11" d="M495.8,68.6c0.4,0.6,4.5-3.4,4.8-2.8c1.1,2-9.6,8.7-8.5,10.7c2,3.4,11-10.9,12.9-7.5
					c1.9,3.3-18.7,12.2-16.8,15.5c3.5,6.1,27.9-24.2,31.4-18.1"/>
				<path class="st11" d="M426.8,68c0.3,0.5,3.8-2.9,4.1-2.4c0.4,0.7,2.4,3.4,2.8,4.2c1.1,2,0.8-3.1,1.9-1.1c0.9,1.5-6.4,7.5-5.5,9
					c2.1,3.7,15.4-13.8,17.5-10.1c2,3.4-19.9,12.7-17.9,16.1c2.5,4.4,15.8-15,18.4-10.6c1.5,2.5-13.7,10.3-12.2,12.8
					c2.7,4.8,10.7-12.5,13.5-7.8c1.7,3-16.7,11.5-15,14.4c2.7,4.7,20.4-18.1,23.2-13.4c2.5,4.3-25.4,14.7-22.9,19
					c2.7,4.7,18.1-16.7,20.8-12c1.3,2.2-11.4,9.4-10.1,11.6c2.7,4.6,18.2-16.7,20.9-12.1c2.1,3.7-21.5,13.3-19.4,17
					c2.6,4.6,19.1-17.1,21.7-12.6c2.1,3.6-21,13.1-18.9,16.7c2.6,4.5,11.3-12.6,13.9-8c1.7,2.9-16.4,11.3-14.7,14.3
					c2.6,4.5,15-14.7,17.6-10.2c1.9,3.3-18.8,12.3-16.9,15.5c6.8,11.8,58.4-49.4,65.2-37.6c5.6,9.7-61.7,28.5-56.1,38.2
					c6.5,11.3,48.5-43.1,55-31.8c5.5,9.6-61.1,28.3-55.6,37.9c6.6,11.5,56.7-48,63.4-36.6c7.1,12.3-78.9,35-71.8,47.2
					c6.7,11.6,51-44.9,57.7-33.3c6.8,11.7-75.2,33.6-68.4,45.3c6.7,11.6,60.3-50.3,67-38.7c7.1,12.3-78.9,34.9-71.8,47.2
					c6.7,11.6,58.2-49.1,64.9-37.5c7.1,12.2-78.6,34.8-71.6,47.1c6.5,11.3,56.8-47.9,63.4-36.6c6,10.4-66.6,30.3-60.6,40.8
					c6.8,11.8,61-51,67.8-39.2c6.7,11.6-74.4,33.3-67.7,44.9c7.1,12.2,59.9-50.9,66.9-38.6c6.4,11-70.7,31.9-64.3,42.9
					c3.8,6.6,27.8-24.8,31.6-18.3c2.9,5-30.2,16.6-27.4,21.6c2.4,4.2,14.8-14.1,17.2-9.9c1.1,1.8-8.8,8.4-7.7,10.2
					c0.8,1.4,7.5-6.2,8.3-4.8"/>
				<path class="st11" d="M535.4,68c0.2,0.4,3.5-2.6,3.7-2.1c0.4,0.7,2.4,3.4,2.9,4.1c1.1,2,0.9-3.2,2-1.2c0.9,1.5-6.6,7.5-5.7,9.1
					c2.1,3.6,15.1-13.5,17.2-9.9c1.9,3.3-19.1,12.4-17.2,15.7c3.1,5.3,20.9-19.2,24-13.9c2.1,3.6-20.7,13-18.6,16.5
					c3.3,5.7,16.1-16.9,19.4-11.2c2.5,4.4-26.4,15.1-23.8,19.5c3.3,5.7,25.7-22.4,29-16.7c3.3,5.7-34.9,18.4-31.6,24
					c3.2,5.6,23.3-20.9,26.5-15.3c2.1,3.6-20.8,13-18.8,16.6c3.2,5.5,23.3-20.8,26.5-15.3c2.9,5.1-30.9,16.8-28,21.9
					c3.2,5.5,24.1-21.2,27.2-15.7c2.9,5-30.3,16.6-27.4,21.6c3.1,5.4,16.1-16.5,19.3-11.1c2.5,4.3-25.6,14.8-23.1,19.1
					c3.1,5.4,19.7-18.5,22.8-13.2c2.7,4.6-27.8,15.7-25.1,20.3c3.1,5.4,23.1-20.5,26.2-15.1c2.2,3.8-22.2,13.5-20,17.3
					c3.1,5.4,15.7-16.2,18.7-10.8c2,3.5-20.6,12.9-18.5,16.5c3.1,5.4,23.4-20.7,26.5-15.3c3,5.1-31.3,17-28.3,22.1
					c3.1,5.4,17.2-17.1,20.3-11.7c2.5,4.4-26.1,15-23.6,19.4c3.2,5.5,26.8-22.8,29.9-17.3c2.9,5-30.1,16.5-27.2,21.5
					c3.2,5.5,25-21.8,28.2-16.3c3.4,6-36.7,19.1-33.3,25c3.2,5.6,25.5-22.2,28.7-16.6c2.8,4.8-28.9,16.1-26.1,20.8
					c3.3,5.7,27.5-23.4,30.7-17.7c3.2,5.6-34.3,18.1-31.1,23.7c3.3,5.7,24.2-21.6,27.5-15.9c2.6,4.5-27.1,15.4-24.5,19.9
					c3.2,5.5,22.1-20.2,25.3-14.6c2.3,3.9-23.1,13.9-20.9,17.8c2.4,4.2,14.8-14.1,17.2-9.9c1.1,1.8-8.7,8.4-7.7,10.2
					c1.5,2.5,13.6-11.2,15-8.7c0.8,1.4-5.4,7.1-4.6,8.4c0.4,0.8,1.8-2.1,2.3-1.3"/>
				<path class="st11" d="M625,138.6c3.9,6.8,33.1-28.2,37-21.4c2.9,5-30.3,16.6-27.4,21.6c3,5.2,22.8-20.1,25.8-14.9
					c1.8,3.2-17.9,11.9-16.1,15.1c2.1,3.6,13.5-12.6,15.6-9c0.8,1.5-6.1,7.4-5.3,8.8c1.2,2,5.8-6,6.9-4"/>
				<path class="st11" d="M629.7,89.9c4.2,7.3,36.1-30.5,40.3-23.2c3.3,5.6-34.6,18.3-31.4,23.9c3.3,5.7,23.4-21.1,26.7-15.4
					c1.7,3-16.8,11.5-15.1,14.5c2.4,4.2,17.7-15.8,20.2-11.6c1.7,3-17,11.6-15.3,14.6c1.7,2.9,8.9-8.9,10.5-6.1
					c0.4,0.8,0.4,4.5,0.9,5.3c0.9,1.5,0.9-2.6,1.8-1"/>
				<path class="st11" d="M585.1,68.5c0.3,0.5,3.7-2.8,4-2.3c0.4,0.7,2.4,3.4,2.8,4.1c1.2,2.1,1.3-3.5,2.5-1.4
					c0.9,1.6-6.9,7.6-5.9,9.2c2.1,3.6,15.1-13.5,17.2-9.9c1.9,3.3-18.9,12.3-17,15.6c3,5.2,19.9-18.4,22.9-13.2
					c1.9,3.3-19.3,12.4-17.3,15.8c3.9,6.7,21.7-21.5,25.5-14.8c3.1,5.4-32.9,17.6-29.8,23c4.9,8.5,41.1-35,46-26.5
					c4.9,8.4-53.4,25.3-48.5,33.8c5.9,10.3,49-42,55-31.7c4.7,8.2-51.8,24.7-47.1,32.9c7,12.1,59.1-50.2,66.1-38.2
					c6.7,11.6-74.1,33.2-67.5,44.7c7.7,13.4,67.5-56.8,75.2-43.4c7.4,12.9-82.7,36.4-75.3,49.2c3.1,5.3,15.6-16.1,18.7-10.8
					c2.4,4.2-24.8,14.5-22.4,18.7c3.1,5.4,19.8-18.6,22.9-13.2c2.7,4.6-27.8,15.7-25.2,20.3c3.4,5.9,26.1-22.9,29.5-17
					c2.5,4.3-25.7,14.9-23.2,19.2c4.3,7.4,26.9-25.4,31.2-18c3.2,5.6-34.1,18.1-30.9,23.6c5.3,9.2,44.3-37.9,49.6-28.7
					c5.2,8.9-56.6,26.5-51.4,35.5c6.4,11,47.9-42.3,54.2-31.3c5.7,9.9-63.2,29-57.5,39c7.3,12.7,66.4-55.3,73.7-42.6
					c7,12.1-78,34.6-71,46.7c3.2,5.6,25.3-22.1,28.5-16.5c3.5,6-37,19.1-33.5,25.1c3.2,5.5,24.7-21.6,27.9-16.1
					c2.7,4.6-27.8,15.7-25.1,20.3c3.2,5.5,26.5-22.7,29.7-17.2c3.1,5.4-33,17.6-29.9,23c3.2,5.6,23.2-20.8,26.4-15.2
					c2.6,4.4-26.5,15.2-23.9,19.6c3.2,5.5,21.8-19.9,24.9-14.4c2.3,4-24,14.2-21.6,18.3c2.5,4.3,15.6-14.8,18.1-10.5
					c1.2,2-10.3,9-9.1,11c1.6,2.8,15.1-12.5,16.7-9.7c1,1.7-8.2,8.2-7.2,9.9c0.7,1.2,4.5-4.2,5.2-3"/>
				<path class="st11" d="M763.2,156c5.8,10.1,51.1-42.9,56.9-32.8c4.8,8.4-52.8,25.1-47.9,33.4c4.8,8.3,39.8-34,44.6-25.8
					c3.6,6.3-38.9,19.9-35.3,26.2c3.6,6.3,28.4-24.8,32.1-18.5c2.1,3.7-21.4,13.2-19.3,16.9c1.9,3.3,13-11.9,14.9-8.6"/>
				<path class="st11" d="M766.1,90.7c3.7,6.4,31.1-26.5,34.8-20.1c2.7,4.6-28,15.8-25.3,20.4c3.1,5.4,22-20,25.2-14.5
					c1.7,2.9-16.4,11.4-14.7,14.3c2.8,4.9,21.2-18.7,24-13.9c2.4,4.2-25.1,14.7-22.7,18.9c2.7,4.6,18.5-16.8,21.1-12.2
					c1.5,2.7-14.6,10.6-13,13.3c2.7,4.6,14.5-14.5,17.2-9.9c2,3.5-20.6,12.9-18.6,16.5c2.7,4.7,21.5-18.7,24.2-14
					c2.8,4.8-29.3,16.2-26.5,21.1c2.9,5,25.9-21.6,28.7-16.6c2.3,3.9-23.2,13.9-20.9,17.8c3,5.3,20.8-19.1,23.9-13.8
					c3,5.3-32.1,17.3-29.1,22.6c3.4,5.9,23.3-21.3,26.7-15.4"/>
				<path class="st11" d="M724,69.1c0.3,0.5,4-3,4.3-2.5c0.4,0.7,2.2,3.6,2.6,4.3c1.3,2.3,2.6-4.5,3.9-2.3c1,1.8-8.4,8.2-7.3,10
					c2.3,3.9,16.9-15,19.1-11.1c2.1,3.6-21,13.1-18.9,16.7c3.2,5.5,21.9-20,25.1-14.5c2.1,3.7-21.7,13.3-19.5,17
					c4.1,7.1,23.6-23.1,27.7-16c3.3,5.7-35.4,18.5-32.1,24.3c5,8.6,42-35.8,47-27.1c5,8.6-54.6,25.8-49.6,34.4
					c5.8,10.1,47.8-41,53.6-31c4.6,8-50.4,24.2-45.8,32.2c6.5,11.2,54.6-46.5,61.1-35.3c6.2,10.8-68.8,31.1-62.6,41.9
					c3,5.2,22.8-20.2,25.9-14.9c2.8,4.8-28.8,16.1-26.1,20.8c3,5.2,14.9-15.5,17.9-10.4c2.3,4.1-24,14.2-21.7,18.3
					c3,5.2,18.6-17.6,21.6-12.4c2.5,4.4-26.3,15.1-23.8,19.5c3,5.2,22-19.6,25-14.5c2.1,3.6-20.8,13-18.7,16.6
					c3,5.2,14.8-15.4,17.8-10.3c1.9,3.4-19.3,12.5-17.4,15.8c3,5.2,22.6-20,25.6-14.8c2.9,5-30.2,16.6-27.3,21.5
					c3.1,5.4,17.1-17.1,20.2-11.7c2.5,4.3-25.8,14.9-23.3,19.3c3.9,6.8,34.1-28.8,38-22c3.6,6.3-38.8,19.8-35.2,26.1
					c5,8.6,41.7-35.5,46.7-26.9c5.2,8.9-56.7,26.6-51.6,35.5c9.4,16.3,83.9-70.1,93.3-53.9c8.9,15.4-99.3,42.6-90.5,58
					c9.4,16.3,85.5-71,94.8-54.8c9.3,16.1-104.3,44.5-95,60.6c3.2,5.5,22.8-20.5,26-15c2.5,4.3-25.9,14.9-23.4,19.3
					c3.1,5.4,21.1-19.3,24.2-13.9c2.1,3.6-21.2,13.2-19.1,16.8c2.3,3.9,13.5-13,15.8-9.1c1,1.7-7.5,7.9-6.5,9.6
					c1.4,2.4,12.9-10.7,14.3-8.3c0.8,1.4-5.9,7.3-5.1,8.7c0.5,0.9,2.5-2.6,3-1.7"/>
				<path class="st11" d="M877.7,132.1c1.7,2.9,12.1-10.8,13.7-7.9c1.1,1.9-9.3,8.6-8.2,10.5c0.7,1.2,7.8-6.2,8.6-4.9"/>
				<path class="st11" d="M833,107.2c0.3,0.5,3.9-2.9,4.2-2.4c0.4,0.7,3,3,3.5,3.8c1.5,2.6,4-5.7,5.5-3.2c1.1,1.9-9.4,8.6-8.3,10.5
					c2.6,4.5,19.8-17.4,22.4-12.9c2.4,4.1-24.2,14.3-21.8,18.4c2.6,4.5,16.4-15.5,19.1-11c1.6,2.7-14.9,10.8-13.3,13.5
					c3.9,6.7,21.5-21.3,25.3-14.6c3.1,5.4-32.7,17.5-29.6,22.9c5.1,8.8,42.7-36.3,47.8-27.6c5.1,8.8-55.5,26.1-50.5,34.9
					c5.2,9,42-36.3,47.3-27.3c4,7-43.7,21.7-39.6,28.7c5.2,8.9,41.9-36.1,47-27.2c4.9,8.5-53.6,25.4-48.7,33.9
					c5.1,8.9,42.8-36.5,47.9-27.7c4.8,8.4-53.1,25.2-48.2,33.6c2.9,5,13.7-14.5,16.6-9.6c2.2,3.8-22.6,13.7-20.4,17.6
					c2.8,4.9,16.9-16.2,19.7-11.4c2.4,4.1-24.3,14.3-21.9,18.4c2.8,4.9,20.4-18.3,23.2-13.4c1.9,3.3-18.8,12.3-16.9,15.5
					c2.8,4.9,13.1-14.1,15.9-9.2c1.8,3.1-17.3,11.7-15.5,14.7c2.8,4.9,20.8-18.5,23.6-13.6c2.3,4-23.5,14-21.2,18
					c2.5,4.3,10.7-11.9,13.2-7.6c1,1.7-7.8,8-6.9,9.7c1.6,2.8,11.9-10.5,13.4-7.8c0.5,0.9-0.8,5.1-0.3,6c0.7,1.1,0.9-2,1.5-0.9"/>
				<path class="st11" d="M900.3,105.7c0.3,0.5,3.6-2.7,3.9-2.2c0.5,0.8-0.4,4.9,0,5.8c1,1.8,2.1-3.7,3.2-1.8
					c0.5,0.8-0.8,5.1-0.3,5.9c1.9,3.4,13.1-12,15-8.7c2,3.5-20.6,12.9-18.6,16.5c2.9,5.1,21-18.9,23.9-13.8
					c2.1,3.6-20.8,13-18.7,16.6c3,5.1,17.2-16.8,20.2-11.6c2.5,4.3-25.7,14.9-23.3,19.2c2.9,5,22.8-19.8,25.7-14.8
					c3,5.2-31.6,17.1-28.6,22.3c2.8,4.9,25.5-21.3,28.4-16.4c2.2,3.8-22.5,13.6-20.3,17.5c2.8,4.9,18.6-17.2,21.4-12.3
					c2.6,4.4-26.7,15.2-24.1,19.7c2.8,4.8,17.7-16.7,20.5-11.8c2.3,3.9-23.2,13.9-20.9,17.9c2.8,4.8,16.5-16,19.3-11.1
					c2,3.4-19.6,12.6-17.6,16c2.8,4.8,20.1-18.1,22.9-13.2c2.6,4.5-26.9,15.3-24.3,19.8c2.8,4.9,13.4-14.2,16.2-9.3
					c1.7,2.9-16.5,11.4-14.8,14.3c2.8,4.9,15.6-15.5,18.4-10.6c2,3.5-20.5,12.9-18.5,16.5c2.8,4.9,12.6-13.8,15.4-8.9
					c1.8,3.1-17.4,11.7-15.7,14.8c2.5,4.4,18.9-16.7,21.4-12.4c1.5,2.6-14.3,10.5-12.8,13.1c1.6,2.8,12.2-10.8,13.9-8
					c1,1.7-7.6,7.9-6.6,9.6c0.7,1.2,7.4-5.8,8.1-4.7"/>
				<path class="st11" d="M904.6,73.9c0.8,1.4,3.9-4,4.7-2.7c0.6,1-2.4,5.8-1.8,6.8c2,3.5,9.5-10.2,11.5-6.6
					c1.7,2.9-16.5,11.4-14.8,14.3c2.5,4.4,19.3-17,21.8-12.6c2.2,3.7-21.9,13.4-19.7,17.2c2.7,4.6,16.8-15.8,19.5-11.2
					c1.3,2.2-11.5,9.4-10.2,11.7c2.5,4.2,8-10.3,10.4-6c1.2,2-10,8.9-8.8,10.9c1.9,3.2,12.3-11.4,14.2-8.2"/>
				<path class="st11" d="M993.9,123.9c3.3,5.7,27.1-23.2,30.4-17.5c2.6,4.5-26.8,15.3-24.2,19.8c2.9,5,19.5-17.9,22.4-12.9
					c1.9,3.3-18.8,12.3-16.9,15.5c2.8,4.9,21.3-18.8,24.1-13.9c2.8,4.9-29.9,16.5-27.1,21.4c2.8,4.9,19.9-18,22.7-13.1
					c2,3.4-19.7,12.6-17.7,16c2.8,4.9,16-15.7,18.8-10.8c2.4,4.1-24.2,14.3-21.9,18.4c2.8,4.9,22.1-19.2,24.9-14.4
					c2.9,5-30.7,16.8-27.8,21.8c2.8,4.8,25.1-21,27.9-16.1c2.2,3.8-22.1,13.5-19.9,17.3c2.8,4.8,18.5-17.2,21.3-12.3
					c2.6,4.5-26.7,15.3-24.1,19.7c2.8,4.9,17.9-16.8,20.7-12c2.3,4-23.6,14.1-21.3,18.1c2.8,4.9,16.9-16.3,19.7-11.4
					c2,3.5-20.1,12.7-18.1,16.2c2.8,4.9,20.6-18.5,23.5-13.5c2.5,4.4-26.1,15-23.6,19.4c2.7,4.8,12.8-13.7,15.5-9
					c0.9,1.5-6.7,7.6-5.8,9.1c2,3.4,7.4-8.8,9.3-5.4c0.6,1.1-3.3,6.2-2.6,7.3c1,1.8,2.1-3.6,3.2-1.8"/>
				<path class="st11" d="M945.5,107.3c0.3,0.5,3.8-2.9,4.1-2.4c0.4,0.7,3,3.1,3.4,3.8c1.5,2.5,3.8-5.5,5.2-3
					c1.1,1.9-9.2,8.6-8.1,10.5c2.7,4.7,21-18.4,23.7-13.7c2.5,4.3-25.6,14.8-23.2,19.1c2.8,4.8,17.8-16.7,20.6-11.9
					c1.7,3-16.6,11.4-14.9,14.4c2.8,4.8,11.2-13,14-8.1c2,3.5-20.4,12.9-18.4,16.4c5.5,9.5,46.6-39.6,52.1-30.1
					c5.5,9.5-60.3,27.9-54.8,37.4c6.2,10.8,51.7-44.3,58-33.5c5.1,8.7-55.4,26.1-50.3,34.8c6.8,11.8,57.4-48.8,64.2-37
					c6.5,11.3-72.3,32.5-65.8,43.7c2.8,4.9,21.1-18.7,23.9-13.8c2.6,4.5-26.8,15.3-24.2,19.8c2.8,4.9,13.3-14.2,16.1-9.3
					c2.2,3.8-22.2,13.5-20,17.3c2.8,4.9,17.1-16.4,19.9-11.5c2.4,4.1-24.6,14.4-22.2,18.6c2.8,4.9,20.6-18.4,23.4-13.5
					c1.9,3.3-19,12.3-17.1,15.6c2.8,4.9,13.2-14.2,16-9.3c1.8,3.1-17.4,11.7-15.6,14.8c2.8,4.9,20.8-18.5,23.6-13.6
					c2.3,3.9-23.1,13.9-20.8,17.8c2.4,4.2,10.3-11.5,12.7-7.3c0.9,1.6-7.2,7.8-6.2,9.4c1.5,2.6,11-9.8,12.5-7.2
					c0.4,0.8,0.2,4.6,0.7,5.4c0.5,0.9-0.3-1,0.2-0.1"/>
				<path class="st11" d="M1084,127.7c1.7,3,12.8-11.4,14.5-8.4c0.9,1.6-7,7.7-6.1,9.3c0.8,1.4,0-1.9,0.8-0.5"/>
				<path class="st11" d="M1048.4,76.9c0.2,0.4,3.4-2.5,3.6-2.1c0.4,0.7,2,3.7,2.4,4.4c1,1.8-0.4-2.1,0.6-0.4
					c0.8,1.3-5.1,6.9-4.3,8.3c1.8,3,12-11,13.8-8c1.6,2.8-15.3,10.9-13.7,13.7c2.5,4.4,15.6-14.9,18.2-10.5
					c1.5,2.6-14.4,10.6-12.9,13.2c2.8,4.8,11.2-12.9,14-8.1c2.9,5-30.4,16.7-27.5,21.7c3.6,6.2,28.8-25,32.4-18.7
					c3.6,6.2-38.6,19.7-35,26c3.5,6.1,26.1-23.2,29.6-17.1c2.4,4.1-24.5,14.4-22.1,18.5c3.5,6.1,26.4-23.4,29.9-17.3
					c3.3,5.7-34.9,18.4-31.6,24c3.9,6.7,30.7-26.6,34.5-19.9c2.9,5-30.7,16.8-27.8,21.8c4.2,7.3,26.3-24.9,30.5-17.6
					c3.3,5.7-35.2,18.5-31.9,24.2c4.7,8.2,35.2-31.3,40-23.1c4.3,7.4-46.6,22.8-42.3,30.2c4.7,8.1,38.4-33,43.1-24.9
					c3.8,6.5-40.7,20.5-36.9,27.1c4.7,8.1,30.8-28.6,35.4-20.5c3.6,6.3-38.8,19.8-35.2,26.1c2.7,4.7,19.6-17.5,22.3-12.9
					c2.6,4.4-26.6,15.2-24.1,19.7c2.7,4.7,13.3-14,16-9.2c2.1,3.6-21.3,13.2-19.2,16.8c2.7,4.8,22.8-19.5,25.5-14.8
					c2.4,4.2-24.8,14.5-22.4,18.7c2.8,4.8,21-18.6,23.8-13.7c2.9,5-30.3,16.6-27.4,21.6c2.9,5,22.1-19.4,25-14.4
					c2.1,3.7-21.5,13.3-19.3,16.9c3.2,5.6,26.9-23,30.1-17.4c2.7,4.7-28.6,16-25.9,20.7c4.1,7,31.2-27.4,35.3-20.4
					c2.9,5-30.3,16.6-27.4,21.6c3.6,6.2,25.8-23.2,29.4-17c2.6,4.6-27.5,15.6-24.9,20.1c2.7,4.7,17.7-16.5,20.4-11.8
					c1.1,2-9.9,8.8-8.7,10.8c1.5,2.6,14.1-11.6,15.6-9"/>
				<path class="st11" d="M1135.7,151.9c4.6,7.9,39.2-33.2,43.8-25.3c3.4,5.8-35.8,18.7-32.5,24.5c3.6,6.2,28.4-24.7,32-18.5
					c2.2,3.8-22.3,13.6-20.1,17.4c2.5,4.4,17.8-16.1,20.4-11.8c1,1.8-8.3,8.2-7.2,10c1.4,2.4,7.7-7.6,9.1-5.2"/>
				<path class="st11" d="M1147,117.5c2.5,4.3,19.6-17,22-12.7c1.8,3.1-17.8,11.9-15.9,15c2.2,3.7,12.6-12.3,14.8-8.5
					c1.1,1.9-9.6,8.7-8.5,10.7c2.1,3.7,14.8-13.4,16.9-9.7c2,3.5-20.6,12.9-18.6,16.5c2.2,3.8,14-13.2,16.2-9.4"/>
				<path class="st11" d="M1119.9,108.4c1.2,2.2,8.3-7.7,9.6-5.5c1.4,2.5-13.1,10.1-11.7,12.5c3.4,5.8,22-20.5,25.3-14.6
					c3.4,5.8-35.8,18.7-32.4,24.5c4.5,7.8,38.1-32.4,42.6-24.6c4.5,7.7-48.7,23.6-44.2,31.3c5.3,9.1,41.7-36.3,47-27.1
					c4.3,7.4-46.7,22.8-42.4,30.3c5.8,10.1,40.1-36.6,45.9-26.5c5.1,8.8-55.7,26.2-50.6,35c2.6,4.4,19-16.9,21.5-12.4
					c2.5,4.4-26.4,15.1-23.9,19.5c2.5,4.4,16.4-15.3,19-10.9c1.3,2.2-11.6,9.5-10.3,11.7c3.3,5.8,24.5-21.8,27.8-16.1
					c2.9,5.1-30.7,16.8-27.8,21.8c4.5,7.7,36.4-31.3,40.9-23.6c4,6.9-42.9,21.4-39,28.3c2.1,3.7,6.8-8.9,8.9-5.2
					c1.3,2.2-11.2,9.4-10,11.5c2.1,3.6,10.1-10.6,12.2-7c1.4,2.3-12.4,9.8-11,12.1c2.2,3.8,14.4-13.4,16.6-9.6
					c0.9,1.6-7.2,7.8-6.3,9.4c2.4,4.2,9.1-10.8,11.5-6.7c0.9,1.6-7.4,7.9-6.5,9.5c2.9,5,21.4-19.1,24.3-14
					c2.2,3.9-22.7,13.7-20.4,17.6c4.2,7.2,27.1-25.3,31.2-18c2.9,5-30.6,16.7-27.7,21.8c3.8,6.6,32.8-27.7,36.6-21.2
					c2.7,4.7-28.2,15.8-25.5,20.5c3.3,5.6,25.5-22.2,28.8-16.6c2.5,4.4-26,15-23.5,19.4c2.5,4.3,18.4-16.4,20.9-12.1"/>
				<path class="st11" d="M1237.1,132.1c1.7,2.9,12.1-10.8,13.7-7.9c1.1,1.9-9.3,8.6-8.2,10.5c0.7,1.2,7.8-6.2,8.6-4.9"/>
				<path class="st11" d="M1192.4,107.2c0.3,0.5,3.9-2.9,4.2-2.4c0.4,0.7,3,3,3.5,3.8c1.5,2.6,4-5.7,5.5-3.2
					c1.1,1.9-9.4,8.6-8.3,10.5c2.6,4.5,19.8-17.4,22.4-12.9c2.4,4.1-24.2,14.3-21.8,18.4c2.6,4.5,16.4-15.5,19.1-11
					c1.6,2.7-14.9,10.8-13.3,13.5c3.9,6.7,21.5-21.3,25.3-14.6c3.1,5.4-32.7,17.5-29.6,22.9c5.1,8.8,42.7-36.3,47.8-27.6
					c5.1,8.8-55.5,26.1-50.5,34.9c5.2,9,42-36.3,47.3-27.3c4,7-43.7,21.7-39.6,28.7c5.2,8.9,41.9-36.1,47-27.2
					c4.9,8.5-53.6,25.4-48.7,33.9c5.1,8.9,42.8-36.5,47.9-27.7c4.8,8.4-53.1,25.2-48.2,33.6c2.9,5,13.7-14.5,16.6-9.6
					c2.2,3.8-22.6,13.7-20.4,17.6c2.8,4.9,16.9-16.2,19.7-11.4c2.4,4.1-24.3,14.3-21.9,18.4c2.8,4.9,20.4-18.3,23.2-13.4
					c1.9,3.3-18.8,12.3-16.9,15.5c2.8,4.9,13.1-14.1,15.9-9.2c1.8,3.1-17.3,11.7-15.5,14.7c2.8,4.9,20.8-18.5,23.6-13.6
					c2.3,4-23.5,14-21.2,18c2.5,4.3,10.7-11.9,13.2-7.6c1,1.7-7.8,8-6.9,9.7c1.6,2.8,11.9-10.5,13.4-7.8c0.5,0.9-0.8,5.1-0.3,6
					c0.7,1.1,0.9-2,1.5-0.9"/>
			</g>
		</g>
	</g>
</g>
<g id="outline_x5F_layer">
	<g class="st12">
		<g>
			<path class="st13" d="M418.8,157.3c0,2.4-0.5,6.8-1.4,13.2c-1,7-1.9,11.1-2.7,12.4c-0.7,1.1-1.6,1.6-2.8,1.6
				c-0.5,0-1.3-0.1-2.5-0.3c-4.1-0.6-15.9-0.8-35.6-0.8c-4.3,0-10.7,0-19.1-0.1c-8.5-0.1-14.8-0.1-19-0.1c-1.8,0-2.8-0.8-2.8-2.4
				c0-6.2,0.3-15.6,1-28.1c0.7-12.5,1-21.9,1-28.1c0-6.3-0.3-18.2-1-35.5c-0.2-4.5-0.5-11.1-0.9-20l-0.1-1.2
				c-0.1-1.3,0.6-1.9,2.1-1.9c4.1,0,10.3,0.1,18.6,0.3c8.3,0.2,14.5,0.3,18.6,0.3c4.1,0,10.2-0.1,18.4-0.3
				c8.2-0.2,14.3-0.3,18.4-0.3c2.9,0,4.6,1.1,5,3.3c0.3,1.3,0.7,5.2,1.3,11.6c0.6,6.5,0.9,10.4,0.9,11.8c0,1.2-0.6,1.8-1.7,1.8
				c-0.3,0-0.9,0-1.8-0.1c-14.8-1.2-28.1-1.8-39.9-1.8c-3,0-4.8,0.7-5.4,2.1c-0.3,0.7-0.4,2.8-0.4,6.4c0,3.8,0.6,6.3,1.7,7.5
				c0.9,1.1,2.8,1.6,5.4,1.6c0.6,0,1.6,0,3.3-0.1c1.6-0.1,2.9-0.1,4-0.1c7,0,14.1-0.2,21.3-0.6c0.6-0.1,2.1-0.2,4.6-0.4
				c1.9-0.2,3.4-0.3,4.5-0.3c1.3,0,2,0.6,2,1.9c0-1.2-0.5,3.1-1.5,12.8c-0.4,4.5-0.7,8.9-0.7,13.4c0,1.1-0.8,1.7-2.4,1.7l-7.5-0.8
				c-3.2-0.3-10.4-0.5-21.7-0.5h-8.9c-2.3,0-3.6,0.6-4,1.7c-0.1,0.3-0.1,2-0.1,5.2c0,4.2,0.3,7,0.8,8.2c0.9,2.1,4.5,3.4,10.7,3.8
				c-0.1,0,4,0,12.2,0c2.9,0,7.3-0.3,13.2-0.8c5.8-0.5,10.2-0.8,13.1-0.8C418.2,154.3,418.8,155.3,418.8,157.3z"/>
			<path class="st13" d="M522.1,172.2c0,5.5-0.3,8.7-0.8,9.7c-0.6,1.2-2.5,1.8-5.7,1.8c-0.5,0-1.6,0-3.3,0c-1.7-0.1-3.1-0.1-4.2-0.1
				c-1.1,0-2.8-0.1-5.1-0.2c-2.3-0.1-3.9-0.2-5.1-0.2c-0.9,0-4.9-5.3-12-16c-7.1-10.7-10.8-16.1-11.1-16.1c-1.2,0.9-5.2,6.6-12,16.9
				c-6.6,9.9-10.4,14.9-11.5,15.3c-0.8,0.2-2.9,0.3-6.3,0.3c-11.4,0-17.1-0.6-17.1-1.8s-0.1-2.8-0.2-5c-0.1-2.2-0.2-3.8-0.2-4.8
				c0-6.9,0.4-11,1.3-12.2c0.1-0.1,4.6-6.2,13.8-18.3c7.4-9.8,11.1-15.4,11.1-16.8c0-1.4-3.7-6.9-11.1-16.5c-4.7-6-9.3-11.9-13.9-18
				c-0.5-0.7-0.8-1.9-0.9-3.6c-0.1-1.2-0.1-2.8,0-4.8c0.2-2.4,0.3-3.7,0.3-4c0-1.1-0.1-2.8-0.3-5.2c-0.2-2.3-0.3-4.1-0.3-5.2
				c0-1.1,1-1.6,2.9-1.6c1.3,0,3.2,0.1,5.7,0.3c2.5,0.2,4.4,0.3,5.6,0.3c1.1,0,2.8-0.1,4.9-0.2c2.2-0.1,3.8-0.2,4.8-0.2
				c0.9,0,4.9,5.4,12.1,16.2c7.2,10.8,11,16.2,11.3,16.2c1.1-0.7,5.2-6.3,12.3-17c6.7-10.3,10.6-15.4,11.6-15.4h19.9
				c1.9,0,2.9,0.5,2.9,1.4v20.3c0,1.4-4.3,7.8-12.9,19c-8.6,11.2-12.9,17.1-12.9,17.8c0,0.9,3.8,6.4,11.4,16.4
				c8.9,11.7,13.6,17.9,13.9,18.5C521.7,160.7,522.1,164.9,522.1,172.2z"/>
			<path class="st13" d="M569.2,121.6c0,6.6,0.2,16.4,0.5,29.6c0.3,13.2,0.5,23.1,0.5,29.6c0,1.1-0.3,1.8-0.8,2.1
				c-0.1,0.1-0.8,0.2-2.2,0.3c-3.6,0.4-8.5,0.7-14.5,0.7c-8.1,0-13.3-0.2-15.5-0.7c-1.6-0.3-2.4-1.2-2.4-2.6c0,0.9,0.3-4,0.8-14.7
				c1-22.5,1.5-37.3,1.5-44.4c0-6-0.2-14.9-0.6-26.8c-0.4-11.9-0.6-20.8-0.6-26.8c0-1.2,0.6-1.8,1.9-1.8c1.7,0,4.3,0.1,7.8,0.3
				c3.5,0.2,6.1,0.3,7.8,0.3c1.7,0,4.3-0.1,7.6-0.3c3.4-0.2,5.9-0.3,7.6-0.3c1.6,0,2.4,0.6,2.4,1.8c0,6-0.3,14.9-1,26.8
				C569.5,106.7,569.2,115.6,569.2,121.6z"/>
			<path class="st13" d="M672.5,93.3c0,0.6-0.6,0.9-1.7,0.9c-4.2,0-10.5-0.4-19-1.1c-8.5-0.7-14.8-1.1-19.1-1.1
				c-5.3,0-8.5,0.2-9.4,0.6c-2.1,0.9-3.1,3.6-3.1,8c0,5.3,1.3,8.3,4,9c1.1,0.3,2.8,0.4,5.1,0.4c3.8,0,9.6-0.2,17.2-0.6
				c7.7-0.4,13.4-0.6,17.2-0.6c1.8,0,2.8,4.9,2.8,14.7c0,8.5-0.3,13.5-0.9,14.9c-0.4,1-1.1,1.5-2.3,1.5c0.7,0-1-0.2-5.3-0.6
				c-6-0.6-15-0.8-27.1-0.8c-3.9,0-6.1,0-6.6,0.1c-2.8,0.4-4.3,1.6-4.3,3.6c0,7.9,0.3,17,1,27.3c0.6,9.3,0.8,13.4,0.8,12.4
				c0,1.4-1.8,2.3-5.3,2.5c0.9-0.1-1.5-0.1-7.4-0.1c-10.4,0-17.1-0.4-20.1-1.1c-1.6-0.4-2.4-1.3-2.4-2.6c0-6.2,0.2-15.5,0.6-27.8
				c0.4-12.4,0.6-21.7,0.6-27.8c0-7.3-0.3-16.6-1-27.7c-1-17.2-1.5-26.4-1.6-27.7l-0.1-1c-0.1-1.4,0.8-2.1,2.5-2.1
				c4.1,0,10.3,0.1,18.7,0.3c8.3,0.2,14.6,0.3,18.7,0.3c4.5,0,11.1-0.3,20.1-1c8.9-0.7,15.6-1,20.1-1c2.8,0,4.3,1.1,4.7,3.4
				c0,2.4,0.1,6,0.3,10.8c0.1,1.2,0.5,3.6,1.1,7.1C672.2,89.3,672.5,91.7,672.5,93.3z"/>
			<path class="st13" d="M825.1,110.8c0,13.5-3.5,24.4-10.6,32.7c-7.6,8.9-18,13.3-31.3,13.3c-2.2,0-5.6-0.1-10.1-0.4
				c-4.5-0.3-7.8-0.4-10.1-0.4c-2.4,0-3.6,1-3.6,3.1c0,2.6,0.3,6.4,0.8,11.4c0.5,5.1,0.8,8.9,0.8,11.4c0,1.3-0.6,1.9-1.8,1.9
				c-3.4,0-8.5-0.1-15.3-0.3c-6.8-0.2-11.9-0.3-15.3-0.3c-1.6,0-2.4-0.8-2.4-2.4c0-6.2,0.1-15.5,0.3-27.8
				c0.2-12.4,0.3-21.7,0.3-27.8c0-17.5-0.8-35.8-2.3-55.1l-0.1-1.2c-0.1-1.1,0.7-1.7,2.5-1.9c4.3-0.6,13.9-0.8,28.7-0.8
				c8.7,0,17.1,0.1,25.1,0.3c13.2,0.4,23.8,4.5,31.9,12.4C821,87,825.1,97.7,825.1,110.8z M791.8,112.1c0-13-6.3-19.5-19-19.5
				c-8.9,0-13.6,0.5-14,1.5c-0.4,0.7-0.6,7.2-0.6,19.3c0,1.7,0.1,4.3,0.2,7.6c0.1,3.4,0.2,5.9,0.2,7.6c0,1.1,5,1.7,15,1.7
				C785.8,130.4,791.8,124.3,791.8,112.1z"/>
			<path class="st13" d="M891.3,131.3c0,2.2-1.2,3.3-3.6,3.3c-1.1,0-2.6-0.1-4.6-0.2c-2-0.1-3.5-0.2-4.5-0.2c-4.6,0-7.8,0.7-9.4,2.2
				c-1.7,1.4-2.5,4.4-2.5,8.8c0,2.4,0,6,0.1,10.9c0.1,4.9,0.1,8.5,0.1,10.9c0,1.6,0.1,4,0.3,7.2c0.2,3.2,0.3,5.6,0.3,7.1
				c0,1.3-0.9,2.1-2.8,2.3c-2.7,0.2-6.8,0.3-12.3,0.3c-5.3,0-9.5-0.2-12.7-0.5c-1.8-0.2-2.8-1.1-2.8-2.8c0-4.5,0-11.1,0.1-20
				c0.1-8.9,0.1-15.5,0.1-20c0-13.1-1.2-23.9-3.6-32.3c-0.1-0.5-0.2-0.9-0.2-1.3c0-0.8,0.4-1.4,1.3-1.7c3.1-0.3,7.5-0.9,13.4-1.8
				c8.8-1.7,13.3-2.6,13.6-2.6c1,0,1.6,1.8,1.9,5.3s0.8,5.3,1.5,5.3c-0.8,0,1.5-1.5,6.8-4.4c5.3-2.9,10.5-4.4,15.4-4.4
				c3.1,0,4.7,0.7,4.7,2c0,1.6-0.2,3.9-0.5,6.8c-0.3,3.2-0.5,5.5-0.6,6.8c0,1.6,0,3.8,0.1,6.4C891.3,128,891.3,130.2,891.3,131.3z"
				/>
			<path class="st13" d="M932,144.9c0,4.1,0.1,10.1,0.3,18.2c0.2,8,0.3,14.1,0.3,18.1c0,1.2-0.7,1.9-2.1,2.1
				c-1.9,0.3-6.2,0.5-12.8,0.5c-6.7,0-11-0.2-12.9-0.5c-1.2-0.2-2-0.6-2.3-1.1c-0.1-0.2-0.2-1.1-0.2-2.5c0-3.8,0.1-9.6,0.3-17.3
				c0.2-7.7,0.3-13.5,0.3-17.4c0-15.8-0.6-28.4-1.8-37.7c-0.1-0.9-0.2-1.5-0.2-1.8c0-1.1,0.8-1.7,2.3-1.7c1.6,0,3.9,0.2,7.1,0.5
				c3.2,0.3,5.6,0.5,7.2,0.5c1.6,0,4-0.1,7.3-0.4c3.2-0.3,5.6-0.4,7.3-0.4c1.3,0,2,0.6,2,1.7c0,0.2-0.1,0.8-0.2,1.6
				C932.6,118.1,932,130.6,932,144.9z M934.2,82.9c0,9.7-5.5,14.5-16.4,14.5c-4.7,0-8.5-1.2-11.6-3.7c-3.3-2.7-5-6.3-5-10.9
				c0-4.3,1.7-7.9,5.2-10.7c3.2-2.6,7-3.8,11.4-3.8c4.3,0,8.1,1.3,11.3,3.9C932.5,75.1,934.2,78.6,934.2,82.9z"/>
			<path class="st13" d="M1031.1,180.9c0,1.5-0.8,2.4-2.3,2.6c-1.6,0.2-5.6,0.3-12.2,0.3c-7,0-11.4-0.2-13-0.5
				c-1.7-0.3-2.5-1.5-2.5-3.4c0-2.6,0.1-6.6,0.3-11.9c0.2-5.3,0.3-9.3,0.3-11.9c0-2.1-0.1-5.1-0.2-9.2c-0.1-4.1-0.2-7.2-0.2-9.2
				c0-7.6-3.3-11.4-9.9-11.4c-2.2,0-4.7,0.9-7.6,2.8c-3.1,2.1-4.7,4.2-4.7,6.3v45.1c0,1.8-0.9,2.9-2.6,3.1
				c-1.9,0.2-5.9,0.3-11.9,0.3c-6.5,0-10.7-0.2-12.7-0.5c-1.7-0.3-2.6-1.2-2.6-2.8c0-4.3,0-10.9,0.1-19.6c0.1-8.7,0.1-15.3,0.1-19.7
				c0-13.9-1.1-24.7-3.3-32.6c-0.1-0.5-0.2-0.9-0.2-1.3c0-0.9,0.4-1.5,1.3-1.8c3.5-0.4,8.2-1,14-1.8c8.9-1.7,13.8-2.6,14.9-2.6
				c0.6,0,1.1,1.9,1.4,5.6c0.3,3.8,0.8,5.6,1.4,5.6c-0.6,0,2.4-1.9,9-5.8c6.6-3.9,12.4-5.8,17.3-5.8c7.1,0,13,1.7,17.7,5
				c5.3,3.8,7.9,9.2,7.9,16v26.6c0,3.6,0,9,0.1,16.2C1031.1,171.8,1031.1,177.2,1031.1,180.9z"/>
			<path class="st13" d="M1100.9,158.8c0,1.7-0.2,4.2-0.6,7.6c-0.4,3.4-0.6,5.9-0.6,7.5s-0.2,2.6-0.5,3c-0.3,0.4-1.3,1.1-2.8,1.9
				c-7.2,4-15.1,5.9-23.9,5.9c-16.1,0-24.1-6.2-24.1-18.5c0-3.7,0.1-9.2,0.4-16.6c0.3-7.4,0.4-12.9,0.4-16.6c0-2.4-1.4-3.7-4.3-3.7
				c-0.2,0-0.6,0-1.1,0c-0.5,0.1-0.9,0.1-1.1,0.1c-2.1,0-3.2-0.8-3.2-2.3c0-0.9,0.1-2.3,0.2-4.1c0.1-1.8,0.2-3.2,0.2-4.1
				c0-1.2-0.1-2.9-0.2-5.3c-0.1-2.4-0.2-4.2-0.2-5.3c0-1.1,1.8-1.7,5.3-1.8c2-0.1,3.1-0.6,3.3-1.7c0.3-2.1,0.4-5.5,0.3-10
				c-0.2-7.2-0.3-10.6-0.3-10.3c0-6.5,0.6-9.7,1.8-9.7c1.5,0,3.6,0.3,6.4,1c3.2,0.7,5.4,1.1,6.6,1.3c2.8,0.4,7.1,0.9,12.9,1.6
				c1.4,0.1,2.1,0.6,2.1,1.4c0,2.2-0.2,5.6-0.5,10.1c-0.4,4.5-0.5,7.9-0.5,10.2c0,2.7,0.8,4.1,2.4,4.1c1.9,0,4.9-0.1,8.9-0.3
				c4-0.2,6.9-0.3,8.9-0.3c1.2,0,1.8,0.4,1.8,1.3c0,1.3-0.1,3.2-0.4,5.8c-0.3,2.6-0.4,4.5-0.4,5.8c0,1.3,0,3.3,0.1,5.8
				c0.1,2.6,0.1,4.5,0.1,5.8c0,1.2-0.8,1.8-2.4,1.8c-1.1,0-3,0-5.6-0.1c-2.6-0.1-4.5-0.1-5.6-0.1h-6.3c-0.8,0-1.3,1.2-1.3,3.7
				c0,1.3,0,3.3,0,5.9c0.1,2.7,0.1,4.6,0.1,5.9c0,4.7,0.5,7.9,1.6,9.7c1.5,2.4,4.5,3.6,8.9,3.6c1.4,0,3.4-0.3,6-1
				c2.6-0.6,4.4-1,5.5-1C1100.3,157,1100.9,157.6,1100.9,158.8z"/>
			<path class="st13" d="M1186.2,137.9c0,5.6-1.8,8.8-5.4,9.6c-0.6,0.1-6.4,0.7-17.3,1.8c-6.6,0.7-16.4,1.6-29.4,2.6
				c0.8,3.6,3.1,6.4,7.1,8.3c3.2,1.6,6.9,2.3,11,2.3c5,0,9.9-1.3,14.9-4c2.1-1.3,4.2-2.7,6.3-4c1.2,0.6,3.1,3.4,5.9,8.5
				c2.8,5.1,4.1,8.4,4.1,9.8c0,0.4-0.4,1-1.3,1.9c-6.8,7.3-17.3,10.9-31.6,10.9c-13.2,0-23.9-3.9-32.1-11.6
				c-8.3-7.8-12.5-18.3-12.5-31.5c0-12.8,3.7-23.3,11.2-31.5c7.7-8.5,17.9-12.7,30.6-12.7c10.7,0,19.8,3.9,27.2,11.7
				C1182.4,117.9,1186.2,127.2,1186.2,137.9z M1156.9,132.8c0-3.5-1.2-6.5-3.7-9.1c-2.5-2.6-5.4-3.9-8.8-3.9c-3.5,0-6.4,1.5-8.7,4.4
				c-2.1,2.7-3.2,5.9-3.2,9.6c0,1.5,0.8,2.3,2.3,2.3c4.1,0,10.5-0.6,19.2-1.9C1156,133.9,1156.9,133.5,1156.9,132.8z"/>
			<path class="st13" d="M1250.7,131.3c0,2.2-1.2,3.3-3.6,3.3c-1.1,0-2.6-0.1-4.6-0.2s-3.5-0.2-4.5-0.2c-4.6,0-7.8,0.7-9.4,2.2
				c-1.7,1.4-2.5,4.4-2.5,8.8c0,2.4,0,6,0.1,10.9c0.1,4.9,0.1,8.5,0.1,10.9c0,1.6,0.1,4,0.3,7.2c0.2,3.2,0.3,5.6,0.3,7.1
				c0,1.3-0.9,2.1-2.8,2.3c-2.7,0.2-6.8,0.3-12.3,0.3c-5.3,0-9.5-0.2-12.7-0.5c-1.8-0.2-2.8-1.1-2.8-2.8c0-4.5,0-11.1,0.1-20
				c0.1-8.9,0.1-15.5,0.1-20c0-13.1-1.2-23.9-3.6-32.3c-0.1-0.5-0.2-0.9-0.2-1.3c0-0.8,0.4-1.4,1.3-1.7c3.1-0.3,7.5-0.9,13.4-1.8
				c8.8-1.7,13.3-2.6,13.6-2.6c1,0,1.6,1.8,1.9,5.3c0.3,3.5,0.8,5.3,1.5,5.3c-0.8,0,1.5-1.5,6.8-4.4c5.3-2.9,10.5-4.4,15.4-4.4
				c3.1,0,4.7,0.7,4.7,2c0,1.6-0.2,3.9-0.5,6.8c-0.3,3.2-0.5,5.5-0.6,6.8c0,1.6,0,3.8,0.1,6.4C1250.7,128,1250.7,130.2,1250.7,131.3
				z"/>
		</g>
	</g>
</g>
<g id="version_x5F_layer">
	<g>
		<path class="st0" d="M1178.7,57.6l5.2-15.9h6.7l-9.5,25.3h-4.7l-9.5-25.3h6.7L1178.7,57.6z"/>
		<path class="st0" d="M1205.4,67.4c-3.5,0-6.2-0.9-8-2.7c-1.8-1.8-2.7-4.3-2.7-7.4V41.2c0-3.1,0.9-5.6,2.7-7.4
			c1.8-1.8,4.4-2.7,7.9-2.7c3.5,0,6.2,0.9,7.9,2.7c1.8,1.8,2.7,4.3,2.7,7.4v16.1c0,3.1-0.9,5.6-2.7,7.4
			C1211.5,66.5,1208.9,67.4,1205.4,67.4z M1205.4,60.9c1.4,0,2.4-0.5,3-1.4c0.6-1,0.9-2.3,0.9-3.9V42.9c0-1.7-0.3-3-0.9-3.9
			c-0.6-0.9-1.6-1.4-3-1.4c-1.4,0-2.4,0.5-3,1.4c-0.6,0.9-0.9,2.3-0.9,3.9v12.7c0,1.7,0.3,3,0.9,3.9
			C1203,60.5,1204,60.9,1205.4,60.9z"/>
		<path class="st0" d="M1220,67v-6.7h6.7V67H1220z"/>
		<path class="st0" d="M1241.7,31.5V67h-6.7V39.4l-4.3,1.6v-7.1l5.3-2.4H1241.7z"/>
	</g>
</g>
<g id="url_x5F_layer">
	<g>
		<g>
			<path class="st0" d="M359.6,240.6l-8.6-28h5.7l5,20l7-20h3.8l7,20l5-20h5.7l-8.6,28h-4.2l-6.8-19.3l-6.8,19.3H359.6z"/>
			<path class="st0" d="M402.3,240.6l-8.6-28h5.7l5,20l7-20h3.8l7,20l5-20h5.7l-8.6,28h-4.2l-6.8-19.3l-6.8,19.3H402.3z"/>
			<path class="st0" d="M445,240.6l-8.6-28h5.7l5,20l7-20h3.8l7,20l5-20h5.7l-8.6,28h-4.2l-6.8-19.3l-6.8,19.3H445z"/>
			<path class="st0" d="M477.4,240.6v-5.8h5.8v5.8H477.4z"/>
			<path class="st0" d="M501,241c-3.8,0-6.8-1.1-8.9-3.2c-2.1-2.1-3.2-5.1-3.2-9v-4.6c0-3.8,1.1-6.8,3.2-8.9
				c2.1-2.1,5.1-3.1,8.9-3.1c2.2,0,4.2,0.4,5.9,1.2c1.8,0.8,3.2,1.9,4.2,3.3l-4,3.6c-0.8-0.9-1.7-1.6-2.7-2.1
				c-1.1-0.5-2.2-0.7-3.3-0.7c-2.1,0-3.8,0.6-4.9,1.8c-1.2,1.2-1.8,2.9-1.8,5v4.6c0,2.2,0.6,3.9,1.8,5.1c1.2,1.2,2.8,1.8,4.9,1.8
				c1.2,0,2.3-0.3,3.3-0.8c1.1-0.5,2-1.3,2.7-2.2l4,3.8c-1,1.4-2.4,2.5-4.2,3.2C505.2,240.7,503.2,241,501,241z"/>
			<path class="st0" d="M522.7,201.4v32c0,0.7,0.1,1.2,0.4,1.6s0.7,0.6,1.3,0.6h2.6v5.2h-3.2c-2.1,0-3.7-0.6-4.8-1.9
				c-1.2-1.3-1.7-3.1-1.7-5.5v-31.9H522.7z"/>
			<path class="st0" d="M544,241c-3.7,0-6.5-1.1-8.5-3.2c-2-2.1-3-5.1-3-9v-4.6c0-3.8,1-6.8,3-8.9c2-2.1,4.9-3.2,8.5-3.2
				s6.5,1.1,8.5,3.2c2,2.1,3,5.1,3,8.9v4.6c0,3.8-1,6.8-3,8.9C550.5,240,547.6,241,544,241z M544,235.8c1.9,0,3.4-0.6,4.5-1.8
				c1.1-1.2,1.6-2.9,1.6-5.1v-4.6c0-2.2-0.5-3.9-1.6-5c-1.1-1.2-2.5-1.8-4.5-1.8c-1.9,0-3.4,0.6-4.4,1.8c-1.1,1.2-1.6,2.9-1.6,5v4.6
				c0,2.2,0.5,3.9,1.6,5.1C540.6,235.2,542,235.8,544,235.8z"/>
			<path class="st0" d="M568.1,212.6v17c0,2,0.5,3.5,1.5,4.5c1,1.1,2.4,1.6,4.2,1.6c1.8,0,3.2-0.5,4.2-1.4c1-1,1.5-2.3,1.5-4.1
				l0.4,5.9c-0.5,1.3-1.4,2.4-2.6,3.4c-1.3,1-2.9,1.5-4.9,1.5c-3.1,0-5.5-1-7.2-3c-1.7-2-2.5-4.8-2.5-8.4v-17H568.1z M579.5,240.6
				v-28h5.5v28H579.5z"/>
			<path class="st0" d="M602.2,241.1c-3.1,0-5.5-1-7.2-3c-1.7-2-2.5-4.8-2.5-8.4v-6.2c0-3.6,0.8-6.4,2.5-8.4c1.6-2,4-3,6.9-3
				c1.7,0,3.2,0.4,4.5,1.3c1.4,0.9,2.5,2.1,3.3,3.6l-0.6,5.7c0-1.2-0.2-2.2-0.6-3c-0.4-0.8-1.1-1.5-1.9-1.9c-0.8-0.4-1.8-0.7-3-0.7
				c-1.8,0-3.2,0.6-4.2,1.7c-1,1.1-1.5,2.7-1.5,4.8v6.1c0,2,0.5,3.6,1.5,4.7c1,1.1,2.4,1.7,4.2,1.7c1.2,0,2.2-0.2,3-0.7
				c0.8-0.5,1.4-1.1,1.9-2c0.4-0.9,0.6-1.9,0.6-3.1l0.4,5.9c-0.5,1.3-1.4,2.4-2.6,3.4C605.8,240.6,604.2,241.1,602.2,241.1z
				 M609.2,240.6v-39.2h5.5v39.2H609.2z"/>
			<path class="st0" d="M633.8,241c-3.7,0-6.5-1.1-8.5-3.2c-2-2.1-3-5.1-3-9v-4.6c0-3.8,1-6.8,3-8.9c2-2.1,4.9-3.2,8.5-3.2
				s6.5,1.1,8.5,3.2c2,2.1,3,5.1,3,8.9v4.6c0,3.8-1,6.8-3,8.9C640.3,240,637.5,241,633.8,241z M633.8,235.8c1.9,0,3.4-0.6,4.5-1.8
				c1.1-1.2,1.6-2.9,1.6-5.1v-4.6c0-2.2-0.5-3.9-1.6-5s-2.5-1.8-4.5-1.8c-1.9,0-3.4,0.6-4.4,1.8c-1.1,1.2-1.6,2.9-1.6,5v4.6
				c0,2.2,0.5,3.9,1.6,5.1C630.4,235.2,631.9,235.8,633.8,235.8z"/>
			<path class="st0" d="M651,217.3v-4.7h14v4.7H651z M654,240.6v-31.8c0-2.5,0.6-4.3,1.7-5.6c1.1-1.2,2.9-1.9,5.3-1.9h4v5.2h-3.9
				c-0.6,0-1,0.2-1.2,0.6c-0.3,0.4-0.4,0.9-0.4,1.5v31.8H654z"/>
			<path class="st0" d="M680.6,241c-3.7,0-6.5-1.1-8.5-3.2c-2-2.1-3-5.1-3-9v-4.6c0-3.8,1-6.8,3-8.9c2-2.1,4.9-3.2,8.5-3.2
				c3.7,0,6.5,1.1,8.5,3.2c2,2.1,3,5.1,3,8.9v4.6c0,3.8-1,6.8-3,8.9C687.1,240,684.3,241,680.6,241z M680.6,235.8
				c1.9,0,3.4-0.6,4.5-1.8c1.1-1.2,1.6-2.9,1.6-5.1v-4.6c0-2.2-0.5-3.9-1.6-5s-2.5-1.8-4.5-1.8c-1.9,0-3.4,0.6-4.4,1.8
				c-1.1,1.2-1.6,2.9-1.6,5v4.6c0,2.2,0.5,3.9,1.6,5.1C677.2,235.2,678.7,235.8,680.6,235.8z"/>
			<path class="st0" d="M719.3,212.6v4.6l-13.5,18.3H720v5.1h-20.8v-4.7l13.8-18.1h-13.4v-5.1H719.3z"/>
			<path class="st0" d="M726.3,240.6v-5.8h5.8v5.8H726.3z"/>
			<path class="st0" d="M750,241c-3.8,0-6.8-1.1-8.9-3.2c-2.1-2.1-3.2-5.1-3.2-9v-4.6c0-3.8,1.1-6.8,3.2-8.9s5.1-3.1,8.9-3.1
				c2.2,0,4.2,0.4,5.9,1.2c1.8,0.8,3.2,1.9,4.2,3.3l-4,3.6c-0.8-0.9-1.7-1.6-2.7-2.1c-1.1-0.5-2.2-0.7-3.3-0.7
				c-2.1,0-3.8,0.6-4.9,1.8c-1.2,1.2-1.8,2.9-1.8,5v4.6c0,2.2,0.6,3.9,1.8,5.1c1.2,1.2,2.8,1.8,4.9,1.8c1.2,0,2.3-0.3,3.3-0.8
				c1.1-0.5,2-1.3,2.7-2.2l4,3.8c-1,1.4-2.4,2.5-4.2,3.2C754.2,240.7,752.2,241,750,241z"/>
			<path class="st0" d="M776.9,241c-3.7,0-6.5-1.1-8.5-3.2s-3-5.1-3-9v-4.6c0-3.8,1-6.8,3-8.9c2-2.1,4.9-3.2,8.5-3.2
				s6.5,1.1,8.5,3.2c2,2.1,3,5.1,3,8.9v4.6c0,3.8-1,6.8-3,8.9C783.4,240,780.6,241,776.9,241z M776.9,235.8c1.9,0,3.4-0.6,4.5-1.8
				c1.1-1.2,1.6-2.9,1.6-5.1v-4.6c0-2.2-0.5-3.9-1.6-5c-1.1-1.2-2.5-1.8-4.5-1.8c-1.9,0-3.4,0.6-4.4,1.8c-1.1,1.2-1.6,2.9-1.6,5v4.6
				c0,2.2,0.5,3.9,1.6,5.1C773.6,235.2,775,235.8,776.9,235.8z"/>
			<path class="st0" d="M796.3,240.6v-28h5.5v28H796.3z M813,240.6v-17c0-2-0.5-3.5-1.5-4.6c-1-1.1-2.3-1.6-4.1-1.6
				c-1.8,0-3.2,0.5-4.2,1.4s-1.5,2.3-1.5,4l-0.6-5.4c0.9-1.7,2-3,3.4-3.9c1.4-0.9,2.9-1.4,4.6-1.4c2.9,0,5.2,1,6.8,3
				c1.6,2,2.4,4.8,2.4,8.4v17H813z M829.7,240.6v-17c0-2-0.5-3.5-1.5-4.6s-2.5-1.6-4.3-1.6c-1.7,0-3,0.5-4,1.6
				c-0.9,1-1.4,2.5-1.4,4.4l-1.1-5.4c0.9-1.9,2.1-3.3,3.5-4.3c1.4-1,3-1.5,4.8-1.5c3,0,5.4,1,7.1,3c1.7,2,2.5,4.8,2.5,8.4v17H829.7z
				"/>
			<path class="st0" d="M862.5,196.8l-18.2,51.3H839l18.2-51.3H862.5z"/>
			<path class="st0" d="M875.4,241c-3.9,0-6.9-1.1-9.1-3.3c-2.1-2.2-3.2-5.3-3.2-9.3v-3.2c0-4.2,1-7.4,3.1-9.7s5-3.4,8.7-3.4
				c3.5,0,6.3,1.3,8.2,3.9c1.9,2.6,2.9,6.2,2.9,10.9v1.8h-18.9v-4.4h13.6c-0.2-2.3-0.8-4-1.8-5.3c-1-1.3-2.4-1.9-4.1-1.9
				c-2.1,0-3.7,0.7-4.8,2s-1.7,3.3-1.7,5.8v3.6c0,2.3,0.6,4.1,1.8,5.3c1.2,1.2,3,1.9,5.2,1.9c1.1,0,2.2-0.2,3.3-0.7
				c1.1-0.4,2.1-1.1,2.9-1.9l3.6,3.6c-1.4,1.3-2.9,2.4-4.7,3.1C878.9,240.7,877.1,241,875.4,241z"/>
			<path class="st0" d="M890,240.6l10.6-15.4l2.6,5.1l-7.1,10.4H890z M909.1,240.6l-8.4-12.7l-10.3-15.3h6.1l8,12.5l10.6,15.4H909.1
				z M904.9,227.7l-2.3-5.2l6.1-9.9h6.1L904.9,227.7z"/>
			<path class="st0" d="M921.3,206.9v-5.5h5.5v5.5H921.3z M921.3,240.6v-28h5.5v28H921.3z"/>
			<path class="st0" d="M933,217.3v-4.7h14v4.7H933z M935.9,240.6v-31.8c0-2.5,0.6-4.3,1.7-5.6s2.9-1.9,5.3-1.9h4v5.2H943
				c-0.6,0-1,0.2-1.2,0.6c-0.3,0.4-0.4,0.9-0.4,1.5v31.8H935.9z"/>
			<path class="st0" d="M952.6,224h18.1v5.2h-18.1V224z"/>
			<path class="st0" d="M979.1,252v-39.4h5.5V252H979.1z M991.6,241c-1.7,0-3.3-0.4-4.6-1.3c-1.3-0.8-2.2-2-2.9-3.5l0.4-5.9
				c0,1.2,0.2,2.2,0.6,3.1c0.4,0.8,1.1,1.5,1.9,1.9c0.8,0.4,1.8,0.7,3,0.7c1.8,0,3.2-0.6,4.2-1.7c1-1.1,1.5-2.7,1.5-4.7v-6.1
				c0-2-0.5-3.6-1.5-4.8c-1-1.1-2.4-1.7-4.2-1.7c-1.2,0-2.2,0.2-3,0.6c-0.8,0.4-1.4,1.1-1.9,1.9c-0.4,0.8-0.6,1.8-0.6,3l-0.6-5.4
				c0.8-1.6,2-2.9,3.3-3.8s2.9-1.3,4.6-1.3c3,0,5.3,1,7,3c1.6,2,2.5,4.8,2.5,8.4v6.1c0,3.6-0.8,6.4-2.5,8.3
				C997.1,240.1,994.7,241,991.6,241z"/>
			<path class="st0" d="M1009.1,240.6v-28h5.5v28H1009.1z M1024.5,219.3c-0.5-0.6-1.1-1-1.8-1.3c-0.7-0.3-1.6-0.5-2.6-0.5
				c-1.7,0-3.1,0.5-4.1,1.4c-1,1-1.4,2.3-1.4,4l-0.6-5.4c0.8-1.7,2-2.9,3.3-3.9c1.4-0.9,2.9-1.4,4.5-1.4c1.3,0,2.4,0.2,3.5,0.6
				c1,0.4,1.9,0.9,2.7,1.6L1024.5,219.3z"/>
			<path class="st0" d="M1032.7,206.9v-5.5h5.5v5.5H1032.7z M1032.7,240.6v-28h5.5v28H1032.7z"/>
			<path class="st0" d="M1046.6,240.6v-28h5.5v28H1046.6z M1063.6,240.6v-17c0-2-0.5-3.5-1.5-4.6s-2.5-1.6-4.3-1.6
				c-1.8,0-3.2,0.5-4.2,1.4s-1.5,2.3-1.5,4l-0.6-5.4c0.9-1.7,2-3,3.4-3.9s2.9-1.4,4.6-1.4c3,0,5.4,1,7.1,3c1.7,2,2.5,4.8,2.5,8.4v17
				H1063.6z"/>
			<path class="st0" d="M1075.3,217.6v-5h12.6v5H1075.3z M1084.7,240.8c-2.3,0-4-0.6-5-1.9c-1-1.3-1.6-3.1-1.6-5.5v-28.8h5.5v28.9
				c0,0.7,0.1,1.2,0.4,1.6s0.7,0.6,1.2,0.6h2.6v5.2H1084.7z"/>
			<path class="st0" d="M1106.9,241c-3.9,0-6.9-1.1-9.1-3.3c-2.1-2.2-3.2-5.3-3.2-9.3v-3.2c0-4.2,1-7.4,3.1-9.7
				c2.1-2.3,5-3.4,8.7-3.4c3.5,0,6.3,1.3,8.2,3.9c1.9,2.6,2.9,6.2,2.9,10.9v1.8h-18.9v-4.4h13.6c-0.2-2.3-0.8-4-1.8-5.3
				c-1-1.3-2.4-1.9-4.1-1.9c-2.1,0-3.7,0.7-4.8,2c-1.1,1.4-1.7,3.3-1.7,5.8v3.6c0,2.3,0.6,4.1,1.8,5.3s3,1.9,5.2,1.9
				c1.1,0,2.2-0.2,3.3-0.7c1.1-0.4,2.1-1.1,2.9-1.9l3.6,3.6c-1.4,1.3-2.9,2.4-4.7,3.1C1110.4,240.7,1108.6,241,1106.9,241z"/>
			<path class="st0" d="M1125,240.6v-28h5.5v28H1125z M1140.4,219.3c-0.5-0.6-1.1-1-1.8-1.3c-0.7-0.3-1.6-0.5-2.6-0.5
				c-1.7,0-3.1,0.5-4.1,1.4c-1,1-1.4,2.3-1.4,4l-0.6-5.4c0.8-1.7,2-2.9,3.3-3.9c1.4-0.9,2.9-1.4,4.5-1.4c1.3,0,2.4,0.2,3.5,0.6
				c1,0.4,1.9,0.9,2.7,1.6L1140.4,219.3z"/>
		</g>
	</g>
</g>
</svg>
