<?xml version="1.0" encoding="utf-8"?>
<!-- (C) Claudio Z. 2023 (www.cloudofoz.com)  -->
<svg version="1.1" id="Layer_1" xmlns="http://www.w3.org/2000/svg" xmlns:xlink="http://www.w3.org/1999/xlink" x="0px" y="0px"
	 viewBox="0 0 24 24" style="enable-background:new 0 0 24 24;" xml:space="preserve">
<style type="text/css">
	.stroke{fill:none;stroke:#a9a9b3;stroke-width:2;stroke-linecap:round;stroke-miterlimit:10;}
	.fill{fill:#a9a9b3;stroke:none;stroke-width:2;stroke-linecap:round;stroke-miterlimit:10;}
</style>
<path class="stroke" d="M5,3.9h14c1.1,0,2,0.9,2,2V18c0,1.1-0.9,2-2,2H5c-1.1,0-2-0.9-2-2V5.9C3,4.8,3.9,3.9,5,3.9z"/>
<g class="fill" >
	<path d="M7.2,7.6v8.7H4.9V7.6H7.2z"/>
	<path d="M12.9,10.2h-2.1V9.6c0-0.3,0-0.5-0.1-0.6s-0.1-0.1-0.3-0.1c-0.1,0-0.2,0.1-0.3,0.2C10.1,9.2,10,9.3,10,9.6
		c0,0.3,0,0.5,0.1,0.7c0.1,0.1,0.3,0.3,0.6,0.5c1,0.6,1.6,1.1,1.9,1.5s0.4,1,0.4,1.9c0,0.6-0.1,1.1-0.2,1.4
		c-0.1,0.3-0.4,0.5-0.8,0.7c-0.4,0.2-0.9,0.3-1.5,0.3c-0.6,0-1.1-0.1-1.5-0.3c-0.4-0.2-0.7-0.5-0.8-0.9S8,14.4,8,13.8v-0.6h2.1v1.1
		c0,0.3,0,0.5,0.1,0.6c0.1,0.1,0.2,0.1,0.3,0.1s0.3-0.1,0.3-0.2c0.1-0.1,0.1-0.3,0.1-0.5c0-0.5-0.1-0.8-0.2-1
		c-0.1-0.2-0.5-0.4-1.1-0.8c-0.6-0.4-0.9-0.6-1.1-0.8S8.2,11.3,8.1,11C8,10.7,7.9,10.3,7.9,9.9c0-0.7,0.1-1.2,0.3-1.5
		C8.4,8.1,8.6,7.9,9,7.7c0.4-0.2,0.8-0.3,1.4-0.3c0.6,0,1.1,0.1,1.5,0.3c0.4,0.2,0.7,0.4,0.8,0.7c0.1,0.3,0.2,0.8,0.2,1.5V10.2z"/>
	<path d="M19,12.7c0,0.9,0,1.5-0.1,1.9c0,0.4-0.2,0.7-0.4,1s-0.5,0.5-0.9,0.7c-0.4,0.2-0.8,0.2-1.3,0.2c-0.5,0-0.9-0.1-1.3-0.2
		c-0.4-0.2-0.7-0.4-0.9-0.7c-0.2-0.3-0.4-0.6-0.4-1c0-0.4-0.1-1-0.1-1.9v-1.5c0-0.9,0-1.5,0.1-1.9c0-0.4,0.2-0.7,0.4-1
		s0.5-0.5,0.9-0.7c0.4-0.2,0.8-0.2,1.3-0.2c0.5,0,0.9,0.1,1.3,0.2C18,7.8,18.3,8,18.5,8.3c0.2,0.3,0.4,0.6,0.4,1s0.1,1,0.1,1.9V12.7
		z M16.7,9.8c0-0.4,0-0.7-0.1-0.8c0-0.1-0.1-0.2-0.3-0.2c-0.1,0-0.2,0-0.3,0.1C16,9.1,16,9.4,16,9.8v4.1c0,0.5,0,0.8,0.1,0.9
		s0.1,0.2,0.3,0.2c0.2,0,0.3-0.1,0.3-0.2c0-0.1,0.1-0.5,0.1-1V9.8z"/>
</g>
</svg>
